<svg width="1200" height="1200" xmlns="http://www.w3.org/2000/svg" xmlns:xlink="http://www.w3.org/1999/xlink" version="1.1"><g transform="scale(16.8554753477628) translate(-1.9032541380988217, -2.3661981688605414)">                        <g fill="#111111"><title xmlns="http://www.w3.org/2000/svg">Finanzen</title><path xmlns="http://www.w3.org/2000/svg" d="M58.39,24.08,56,22.22a8.15,8.15,0,0,0,1.76-4.75,8.06,8.06,0,0,0-2.19-5.85,8.3,8.3,0,0,0-14.34,5.22,9.07,9.07,0,0,0,.08,1.56l-3,.43a11.42,11.42,0,0,1-.11-2.1A11.3,11.3,0,0,1,57.8,9.57a11.09,11.09,0,0,1,.59,14.51ZM57.33,68.37,60.83,59A21.55,21.55,0,0,0,67,44.08c0-7.28-3.94-14.2-10.52-18.53a28,28,0,0,0-15.42-4.5,27,27,0,0,0-3.79.25A28.15,28.15,0,0,0,26.61,25c-2.69-1.61-6.54-2.57-11.53-1.27a2.5,2.5,0,0,0-1.63,3.48l3.09,6.63-3.68,4.74-2.65.31A2.5,2.5,0,0,0,8,41.32V53.48a2.49,2.49,0,0,0,1.19,2.13l9.88,6.1,2.33,6.62A2.5,2.5,0,0,0,23.76,70h7.63a2.49,2.49,0,0,0,2.23-1.37l1.21-2.37,9.71-.9,1.12,3A2.5,2.5,0,0,0,48,70h7A2.49,2.49,0,0,0,57.33,68.37Zm-8.76-6.54A2.49,2.49,0,0,0,46,60.21l-13,1.2a2.49,2.49,0,0,0-2,1.36L29.86,65H25.53l-2-5.79a2.51,2.51,0,0,0-1-1.29L13,52.09V43.54l1.48-.17a2.49,2.49,0,0,0,1.68-.95l5.26-6.77a2.5,2.5,0,0,0,.3-2.59l-2.33-5a7.65,7.65,0,0,1,7,3.46,2.5,2.5,0,0,0,4.42-2.33c-.11-.21-.24-.43-.38-.65a23.26,23.26,0,0,1,7.48-2.3,24.1,24.1,0,0,1,3.13-.2,22.93,22.93,0,0,1,12.67,3.68C59,33.18,62,38.41,62,44.08a16.67,16.67,0,0,1-5.1,11.78,2.47,2.47,0,0,0-.57.89L53.25,65H49.74Z"/></g>        </g></svg>